<?xml version="1.0" encoding="utf-8"?>
<!-- Generator: Adobe Illustrator 25.0.0, SVG Export Plug-In . SVG Version: 6.00 Build 0)  -->
<svg version="1.1" id="Layer_1" xmlns="http://www.w3.org/2000/svg" xmlns:xlink="http://www.w3.org/1999/xlink" x="0px" y="0px"
	 viewBox="0 0 328.5 383" style="enable-background:new 0 0 328.5 383;" xml:space="preserve">
<style type="text/css">
	.st0{fill:#8ED2CA;}
	.st1{fill:#FFFFFF;}
</style>
<path class="st0" d="M-988.5,390c24.1-5.9,42.3-33.1,42.3-65.9c0-37.1-23.3-67.1-52.1-67.1c-28.8,0-52.1,30.1-52.1,67.1
	c0,32.4,17.8,59.5,41.6,65.7c5.9,9.2,4.9,20.9,4.9,20.9s-2.8,141-5.3,200.3c7.3,2.4,14.8,4.4,22.3,6.2c-2.4-54.2-5-189.9-5.7-199.8
	C-993.4,405.1-991.9,395.8-988.5,390z"/>
<path class="st0" d="M-854,495.4c-1.7-37.8-2.9-65.6-2.9-65.6s-1.9-20.7,11.6-31.8c0.9-0.5,1.9-0.9,2.9-1.2
	c10.5-2.8,28.5-12.5,28.1-39.4c0-0.2,0-0.4,0-0.7c0-1.1,0-2.2,0-3.4c0-2.9-0.3-6.6-0.6-10.8c-0.1-2.1-0.2-4.3-0.4-6.6
	c0-0.1,0-0.1,0-0.1c-2-32.6-6.3-78.9-6.3-78.9h-8.4c0,0-0.8,25.4,0,72.1c0,0.1,0,0.1,0,0.2v0.1c0,0.1,0,0.2,0,0.3c0,0,0,0,0,0.1
	c-0.3,3.6-3.3,6.5-7,6.5c-3.9,0-7-3.1-7-7v-0.1c0,0,0,0,0-0.1l-2-72.2h-9.2l-1.4,77.8c0,0.1,0,0.1,0,0.2s0,0.1,0,0.2
	c0,0.2,0,0.6-0.1,1c0,0.1-0.1,0.3-0.1,0.4c-0.1,0.3-0.2,0.6-0.3,0.9c0,0.1-0.1,0.3-0.2,0.4c-0.1,0.2-0.2,0.3-0.3,0.5
	c-1.2,2.1-3.4,3.5-6,3.5c-3.8,0-6.9-3.1-6.9-6.9c0-0.1,0-0.2,0-0.2c0-0.1,0-0.2,0-0.2v-77.6h-10.9c0,0-0.4,4.9-2.8,81.2
	c0,0,0,0-0.1,0.1c-0.3,3.9-3.6,7-7.6,7s-7.3-3.1-7.6-7.1v-0.1v-0.3c0-0.1,0-0.1,0-0.2s0-0.2,0-0.3l1.6-80.4h-9.6
	c0,0-5.2,74-5.6,96.5c0,1.1,0,2.2,0,3.3c0,0.2,0,0.5,0,0.7c-0.4,26.9,17.7,36.6,28.1,39.4c1,0.3,2,0.7,2.9,1.2
	c13.5,11.1,11.6,31.8,11.6,31.8s-2.2,129.4-4.8,187.1c7.8-1.8,15.5-4,23-6.5C-852.9,597.7-853.5,506.6-854,495.4L-854,495.4z"/>
<g>
	<path class="st1" d="M175.7,42.9l7.5,6.1c-4.6,4.1-11.5,12.6-16.3,28.2C167.4,60.3,170.5,48.3,175.7,42.9 M175.7,37.8
		c-20.5,13.1-10.5,80.5-10.2,80.5c0,0,0,0,0,0c0-56.6,24.2-69.1,24.2-69.1L175.7,37.8L175.7,37.8z"/>
	<path class="st1" d="M215.9,68.4c-0.9,3.5-2.8,8.8-6.4,14.1C202.2,93,190.9,99,176,100.4c0.9-3.5,2.6-8.7,5.7-13.8
		C189,74.5,200.5,68.4,215.9,68.4 M215.9,64.4c-40.6,0-44.8,40.3-44.8,40.3c45.9-1.1,49.6-40,49.6-40.1
		C219,64.5,217.4,64.4,215.9,64.4L215.9,64.4z"/>
	<path class="st1" d="M107.6,26.8c4.9,1.2,13.5,4.1,22,10.3c15.6,11.4,24.1,28.7,25.2,51.5c-5.4-1.3-14.8-4.3-23.7-10.4
		C114.4,66.6,106.5,49.4,107.6,26.8 M104,22C104,22,104,22,104,22C104,22,104,22,104,22L104,22z M104,22
		c-6.3,63.7,54.9,71.5,54.9,71.5C158.8,28.7,104.1,22,104,22L104,22z"/>
	<path class="st1" d="M213.3,113.9c10.8,0,17.9,3.4,22.1,5.5c0.9,0.4,1.6,0.8,2.3,1.1c12,5.1,41.4,28.1,34.1,73.1
		c-3.3,20.2-14.7,46.7-29.7,69c-14.5,21.5-29.9,35.2-40.7,36.4c-0.1-5.5-0.1-12.9-0.2-19.5c-0.1-7-0.1-13-0.2-14.6l0,0l0,0
		c-0.6-13.7-1.1-23.8-1.1-23.9l0-0.1l0-0.1c0-0.1-0.4-5.1,2.4-7.8c6.5-1.8,13.2-7.4,13-18.2v-0.2v-1.2c0-1.1-0.1-2.4-0.2-3.8l0-0.3
		c0-0.5,0-0.9-0.1-1.3c0-0.3,0-0.7,0-1v-0.1v-0.1l0-0.1c-0.7-11.8-2.3-28.7-2.3-28.8l-0.3-3.6h-3.6h-3.1h-3.9l0,0.1h-1.9h-3.4h-3.9
		l0,0.1h-1.6h-4h-3.8h-2.2h-3.5h-3.7l-0.3,3.7c-0.1,1.1-1.9,27.1-2,35.4v1.2l0,0.3c-0.1,10.7,6.6,16.4,13,18.2
		c2.3,2.2,2.5,6.4,2.4,7.8l0,0.1l0,0.1c0,0.3-0.5,31.1-1.2,53.8c-5.5-1.4-11-2.1-16.4-2.1c-8.5,0-16.8,1.6-25.5,5
		c-0.4-11.6-0.7-26.5-1-38.8c-0.3-13.4-0.5-21.2-0.6-22.9c-0.1-3.2,0.2-5.2,0.6-6.4c9.6-3.5,16.4-14.6,16.4-27.3
		c0-15.7-10.3-28.4-23-28.4s-23,12.7-23,28.4c0,12.7,6.6,23.6,16.3,27.2c0.6,1.6,0.7,3.3,0.6,3.9l0,0.2l0,0.2
		c0,0.4-0.8,38.4-1.5,62.5c-12-5.6-27.2-19.8-41-38.6c-16.1-22-27.6-46-30.6-64.3c-7.4-45,22-68,34-73.1l0.2-0.1
		c3.6-1.5,14.4-6.3,27.9-6.3c6,0,11.7,0.9,17.1,2.8c5.1,1.7,8.5,3.1,11.3,4.1c6.2,2.4,8.7,3.4,15.4,3.4c7.8,0,17.5-2.9,32.6-7.6
		C201.6,114.9,207.6,113.9,213.3,113.9 M213.3,109.9c-5.5,0-11.8,0.8-19.1,3.1c-14.8,4.6-24.2,7.4-31.4,7.4c-8.7,0-9.1-1.7-25.4-7.3
		c-6.3-2.2-12.6-3-18.4-3c-14.7,0-26.4,5.2-29.7,6.7c-14.4,6.1-44,31.1-36.4,77.4c6.6,40.2,50.4,99.9,79.3,107.9
		c0.8-23.5,1.7-68.1,1.7-68.1s0.4-4.2-1.8-7.6c-8.6-2.3-15.1-12.1-15.1-23.9c0-13.5,8.5-24.4,19-24.4s19,10.9,19,24.4
		c0,11.9-6.6,21.9-15.4,24c-1.2,2.1-1.8,5.5-1.6,9.9c0.3,3.3,1,44.3,1.9,66.6c1.5-0.1,2.9-0.5,4.2-1c8.5-3.4,16.8-5.1,25.1-5.1
		c6.7,0,13.4,1.1,20.3,3.3c0.8-23.1,1.4-59,1.4-59s0.7-7.6-4.2-11.6c-0.3-0.2-0.6-0.3-1-0.4c-3.8-1-10.3-4.5-10.2-14.3
		c0-0.1,0-0.2,0-0.3c0-0.4,0-0.8,0-1.2c0.1-8.2,2-35.1,2-35.1h3.5l-0.6,29.3v0.1c0,0.1,0,0.1,0,0.1v0.1c0.1,1.5,1.3,2.6,2.8,2.6
		s2.7-1.2,2.8-2.6c0.9-27.8,1-29.6,1-29.6h4v28.2v0.1v0.1c0,1.4,1.1,2.5,2.5,2.5c1,0,1.8-0.5,2.2-1.3c0-0.1,0.1-0.1,0.1-0.2
		c0.1,0,0.1-0.1,0.1-0.1c0-0.1,0.1-0.2,0.1-0.3c0-0.1,0-0.1,0-0.2c0-0.2,0-0.3,0-0.4c0-0.1,0-0.1,0-0.1v-0.1l0.5-28.3h3.4l0.7,26.3
		c0.1,1.4,1.2,2.5,2.6,2.5c1.3,0,2.4-1.1,2.5-2.4v-0.1c0-0.1,0-0.1,0-0.1c0-0.1,0-0.1,0-0.1c-0.3-16.9,0-26.2,0-26.2h3.1
		c0,0,1.6,16.8,2.3,28.7c0,0.1,0,0.1,0,0.1c0,0.8,0.1,1.6,0.1,2.4c0.1,1.5,0.2,2.9,0.2,3.9c0,0.4,0,0.8,0,1.2c0,0,0,0.1,0,0.2
		c0.2,9.8-6.4,13.3-10.2,14.3c-0.3,0.1-0.7,0.2-1,0.4c-4.9,4.1-4.2,11.6-4.2,11.6s0.5,10.1,1.1,23.9c0.1,3.5,0.2,27.5,0.4,37.9
		c0.8,0.1,1.7,0.2,2.5,0.2c27.1,0,68.7-65.6,75.8-108.8c7.5-46.2-22.1-71.3-36.5-77.4C235.6,115.3,227.2,109.9,213.3,109.9
		L213.3,109.9z"/>
	<path class="st1" d="M133.7,314.6c11.7,0,21.2,9.5,21.2,21.2c-0.1,11.7-9.6,21.2-21.2,21.2c-7.4,0-14.2-3.8-18.1-10.2l-1.2-1.9
		h-0.3l-1-4c-0.4-1.7-0.6-3.4-0.6-5.1c0-0.4,0-0.7,0-1.1l0.1-3.1l0,0l0.9-2.7C116.6,320.3,124.6,314.6,133.7,314.6 M133.7,352.9
		c9.4,0,17-7.6,17-17s-7.6-17-17-17s-17,7.6-17,17S124.3,352.9,133.7,352.9 M133.7,310.6c-11.1,0-20.5,7.1-23.8,17.1l-51.6-0.6
		c-0.1,0-0.1,0-0.2,0c-1.9,0-3.3,1.6-3.3,3.4c-0.1,1.9,1.5,3.5,3.4,3.5l50.3,0.5c0,0.4,0,0.8,0,1.3c0,2.1,0.3,4.1,0.8,6.1H83
		c-1.9,0-3.5,1.6-3.5,3.5c0,1.9,1.6,3.5,3.5,3.5h29.2c4.4,7.3,12.4,12.1,21.5,12.1c13.9,0,25.1-11.3,25.2-25.2
		C158.9,321.9,147.6,310.6,133.7,310.6L133.7,310.6z M133.7,348.9c-7.2,0-13-5.8-13-13s5.8-13,13-13c7.1,0,13,5.8,13,13
		S140.9,348.9,133.7,348.9L133.7,348.9z"/>
	<path class="st1" d="M248.6,314.6c11.7,0,21.2,9.5,21.2,21.2c-0.1,11.7-9.6,21.2-21.2,21.2c-7.4,0-14.2-3.8-18.1-10.2l-1.2-1.9H229
		l-1-4c-0.4-1.7-0.6-3.4-0.6-5.1c0-0.4,0-0.7,0-1.1l0.1-3.1l0,0l0.9-2.7C231.5,320.3,239.5,314.6,248.6,314.6 M248.6,352.9
		c9.4,0,17-7.6,17-17s-7.6-17-17-17c-9.4,0-17,7.6-17,17S239.2,352.9,248.6,352.9 M248.6,310.6c-11.1,0-20.5,7.1-23.8,17.1
		l-51.6-0.6c-0.1,0-0.1,0-0.2,0c-1.9,0-3.3,1.6-3.3,3.4c-0.1,1.9,1.5,3.5,3.4,3.5l50.3,0.5c0,0.4,0,0.8,0,1.3c0,2.1,0.3,4.1,0.8,6.1
		h-26.3c-1.9,0-3.5,1.6-3.5,3.5c0,1.9,1.6,3.5,3.5,3.5h29.2c4.4,7.3,12.4,12.1,21.5,12.1c13.8,0,25.1-11.3,25.2-25.2
		C273.8,321.9,262.5,310.6,248.6,310.6L248.6,310.6z M248.6,348.9c-7.2,0-13-5.8-13-13s5.8-13,13-13c7.1,0,13,5.8,13,13
		S255.8,348.9,248.6,348.9L248.6,348.9z"/>
</g>
</svg>
