<?xml version="1.0" encoding="utf-8"?>
<!-- Generator: Adobe Illustrator 25.0.0, SVG Export Plug-In . SVG Version: 6.00 Build 0)  -->
<svg version="1.1" id="Layer_1" xmlns="http://www.w3.org/2000/svg" xmlns:xlink="http://www.w3.org/1999/xlink" x="0px" y="0px"
	 viewBox="0 0 535.3 479.1" style="enable-background:new 0 0 535.3 479.1;" xml:space="preserve">
<style type="text/css">
	.st0{fill:#E9262A;}
	.st1{fill:#736759;}
	.st2{fill:#75BF43;}
	.st3{fill:#FFFFFF;}
	.st4{enable-background:new    ;}
</style>
<g>
	<g>
		<g>
			<g>
				<path class="st0" d="M342.6,131.6c-5-2.1-19.4-11.7-45-3.8c-14.8,4.6-24.2,7.4-31.4,7.4c-8.7,0-9.1-1.7-25.4-7.3
					c-22.5-7.7-43.5,1.7-48.1,3.7c-14.4,6.1-44,31.1-36.4,77.4s64.6,118.5,91.2,107.8c17-6.8,33.2-6.8,50.2,0
					c26.6,10.6,73.8-61.5,81.4-107.8C386.6,162.8,357,137.7,342.6,131.6z"/>
			</g>
			<g>
				<path class="st1" d="M268.9,133.1c0,2-10.6-67.2,10.2-80.5l14,11.4C293.1,64,268.9,76.5,268.9,133.1z"/>
				<path class="st2" d="M274.5,119.5c0,0,4.5-43.4,49.6-40.1C324.1,79.5,320.4,118.4,274.5,119.5z"/>
				<path class="st2" d="M262.3,108.3c0,0-61.2-7.8-54.9-71.5C207.3,36.8,262.2,43.4,262.3,108.3z"/>
			</g>
			<path class="st3" d="M243,241.3c8.8-2.1,15.4-12.1,15.4-24c0-13.5-8.5-24.4-19-24.4s-19,10.9-19,24.4c0,11.8,6.5,21.6,15.1,23.9
				c2.2,3.4,1.8,7.6,1.8,7.6s-1,51.3-1.9,72.9c2.7,0.9,5.4,1.6,8.1,2.2c-0.9-19.7-1.8-69.1-2.1-72.7
				C241.2,246.8,241.8,243.4,243,241.3z"/>
			<path class="st3" d="M300.4,279.7c-0.6-13.8-1.1-23.9-1.1-23.9s-0.7-7.5,4.2-11.6c0.3-0.2,0.7-0.3,1-0.4
				c3.8-1,10.4-4.5,10.2-14.3c0-0.1,0-0.2,0-0.2c0-0.4,0-0.8,0-1.2c0-1-0.1-2.4-0.2-3.9c0-0.8-0.1-1.6-0.1-2.4c0,0,0,0,0-0.1
				c-0.7-11.9-2.3-28.7-2.3-28.7H309c0,0-0.3,9.3,0,26.2c0,0,0,0,0,0.1c0,0,0,0,0,0.1v0.1l0,0c-0.1,1.3-1.2,2.4-2.5,2.4
				c-1.4,0-2.5-1.1-2.6-2.5l0,0l0,0l-0.7-26.3h-3.4l-0.5,28.3v0.1c0,0,0,0,0,0.1s0,0.2,0,0.4c0,0.1,0,0.1,0,0.2
				c0,0.1-0.1,0.2-0.1,0.3c0,0,0,0.1-0.1,0.1c0,0.1-0.1,0.1-0.1,0.2c-0.4,0.8-1.2,1.3-2.2,1.3c-1.4,0-2.5-1.1-2.5-2.5v-0.1v-0.1
				v-28.2h-4c0,0-0.1,1.8-1,29.6l0,0c-0.1,1.4-1.3,2.6-2.8,2.6s-2.7-1.1-2.8-2.6l0,0v-0.1c0,0,0,0,0-0.1v-0.1l0.6-29.3h-3.5
				c0,0-1.9,26.9-2,35.1c0,0.4,0,0.8,0,1.2c0,0.1,0,0.2,0,0.3c-0.1,9.8,6.4,13.3,10.2,14.3c0.4,0.1,0.7,0.2,1,0.4
				c4.9,4,4.2,11.6,4.2,11.6s-0.8,47.1-1.7,68.1c2.8-0.7,5.6-1.4,8.4-2.4C300.7,316.9,300.5,283.8,300.4,279.7L300.4,279.7z"/>
		</g>
		<g>
			<g>
				<g>
					<path class="st1" d="M237.1,375.8c-13.9,0-25.2-11.3-25.2-25.2c0-13.9,11.3-25.2,25.2-25.2s25.2,11.3,25.2,25.2
						C262.2,364.5,251,375.8,237.1,375.8z M237.1,337.7c-7.2,0-13,5.8-13,13s5.8,13,13,13s13-5.8,13-13S244.2,337.7,237.1,337.7z"/>
				</g>
				<g>
					<path class="st1" d="M216.7,349.4L216.7,349.4l-55.1-0.6c-1.9,0-3.5-1.6-3.4-3.5c0-1.9,1.5-3.5,3.5-3.4l55,0.6
						c1.9,0,3.5,1.6,3.4,3.5C220.2,347.8,218.6,349.4,216.7,349.4z"/>
				</g>
				<g>
					<path class="st1" d="M219.2,363.7h-32.8c-1.9,0-3.5-1.6-3.5-3.5s1.6-3.5,3.5-3.5h32.8c1.9,0,3.5,1.6,3.5,3.5
						S221.1,363.7,219.2,363.7z"/>
				</g>
			</g>
			<g>
				<g>
					<path class="st1" d="M352,375.8c-13.9,0-25.2-11.3-25.2-25.2c0-13.9,11.3-25.2,25.2-25.2c13.9,0,25.2,11.3,25.2,25.2
						C377.1,364.5,365.8,375.8,352,375.8z M352,337.7c-7.2,0-13,5.8-13,13s5.8,13,13,13s13-5.8,13-13S359.1,337.7,352,337.7z"/>
				</g>
				<g>
					<path class="st1" d="M331.6,349.4L331.6,349.4l-55.1-0.6c-1.9,0-3.5-1.6-3.4-3.5c0-1.9,1.5-3.5,3.5-3.4l55,0.6
						c1.9,0,3.5,1.6,3.4,3.5C335.1,347.8,333.5,349.4,331.6,349.4z"/>
				</g>
				<g>
					<path class="st1" d="M334.1,363.7h-32.8c-1.9,0-3.5-1.6-3.5-3.5s1.6-3.5,3.5-3.5h32.8c1.9,0,3.5,1.6,3.5,3.5
						S336,363.7,334.1,363.7z"/>
				</g>
			</g>
		</g>
	</g>
	<g>
		<g class="st4">
			<path class="st2" d="M74.8,408.4H57.9v46.3h-7v-46.3h-17v-5.9h40.9V408.4z"/>
			<path class="st2" d="M86.9,422.7c1.6-1.7,3.3-3,5.3-4c1.9-1,4.1-1.5,6.6-1.5c2,0,3.8,0.3,5.3,1s2.8,1.6,3.9,2.8
				c1,1.2,1.8,2.7,2.4,4.4c0.5,1.7,0.8,3.6,0.8,5.7v23.5h-6.5v-23.5c0-2.8-0.6-5-1.9-6.5s-3.2-2.3-5.8-2.3c-1.9,0-3.7,0.5-5.4,1.4
				c-1.7,0.9-3.2,2.2-4.6,3.8v27.2h-6.5v-53.8H87v21.8H86.9z"/>
			<path class="st2" d="M151.1,449.5c-0.8,1-1.8,1.8-2.9,2.5s-2.3,1.3-3.6,1.8s-2.6,0.8-4,1s-2.7,0.3-4.1,0.3
				c-2.6,0-4.9-0.4-7.1-1.3c-2.2-0.9-4-2.1-5.6-3.8c-1.6-1.7-2.8-3.7-3.7-6.2s-1.3-5.3-1.3-8.5c0-2.6,0.4-5,1.2-7.2s1.9-4.2,3.4-5.8
				c1.5-1.6,3.3-2.9,5.4-3.9c2.1-0.9,4.5-1.4,7.2-1.4c2.2,0,4.3,0.4,6.1,1.1c1.9,0.7,3.5,1.8,4.9,3.2c1.4,1.4,2.5,3.1,3.2,5.2
				c0.8,2.1,1.2,4.4,1.2,7c0,1-0.1,1.7-0.3,2s-0.6,0.5-1.2,0.5h-24.7c0.1,2.3,0.4,4.4,1,6.1s1.4,3.2,2.4,4.3c1,1.1,2.2,2,3.6,2.6
				c1.4,0.6,3,0.9,4.7,0.9c1.6,0,3-0.2,4.2-0.6s2.2-0.8,3-1.2c0.9-0.4,1.6-0.8,2.1-1.2c0.6-0.4,1.1-0.6,1.5-0.6
				c0.5,0,0.9,0.2,1.2,0.6L151.1,449.5z M145.9,432.2c0-1.5-0.2-2.9-0.6-4.1c-0.4-1.3-1-2.3-1.9-3.2c-0.8-0.9-1.8-1.6-3-2.1
				s-2.5-0.7-4-0.7c-3.1,0-5.6,0.9-7.4,2.7c-1.8,1.8-2.9,4.3-3.4,7.5L145.9,432.2L145.9,432.2z"/>
		</g>
		<g class="st4">
			<path class="st0" d="M236.9,401.5v53.2H226v-30.6c0-0.7,0-1.5,0.1-2.3c0-0.8,0.1-1.7,0.2-2.5l-14.1,27.3c-0.4,0.9-1,1.5-1.8,1.9
				c-0.7,0.4-1.6,0.7-2.5,0.7h-1.7c-0.9,0-1.8-0.2-2.5-0.7c-0.7-0.4-1.3-1.1-1.8-1.9l-14.1-27.4c0.1,0.9,0.1,1.7,0.2,2.6
				c0,0.8,0.1,1.6,0.1,2.3v30.6h-10.9v-53.2h9.4c0.5,0,1,0,1.4,0s0.8,0.1,1.1,0.2s0.6,0.3,0.9,0.6c0.3,0.3,0.5,0.6,0.7,1.1l13.7,27
				c0.5,0.9,1,1.9,1.4,2.9s0.9,2,1.3,3.1c0.4-1.1,0.8-2.1,1.3-3.1c0.4-1,0.9-2,1.4-2.9l13.6-26.9c0.2-0.5,0.5-0.8,0.7-1.1
				c0.3-0.3,0.5-0.4,0.9-0.6c0.3-0.1,0.7-0.2,1.1-0.2c0.4,0,0.9,0,1.4,0h9.4V401.5z"/>
			<path class="st0" d="M279.1,416.9v37.8h-7c-1.4,0-2.3-0.6-2.8-1.9l-0.7-2.2c-0.7,0.7-1.5,1.3-2.3,1.9s-1.6,1.1-2.5,1.5
				s-1.8,0.7-2.9,0.9c-1,0.2-2.2,0.3-3.4,0.3c-2.1,0-3.9-0.4-5.5-1.1s-2.9-1.7-4-3s-1.9-2.8-2.5-4.6s-0.8-3.7-0.8-5.8v-24H256v24
				c0,1.9,0.4,3.3,1.3,4.3s2.1,1.5,3.8,1.5c1.2,0,2.4-0.3,3.5-0.8s2.1-1.2,3.2-2.1v-27h11.3V416.9z"/>
			<path class="st0" d="M297.2,420.9c0.7-0.7,1.5-1.3,2.3-1.9s1.6-1.1,2.5-1.5s1.8-0.7,2.9-0.9c1-0.2,2.2-0.3,3.4-0.3
				c2.1,0,3.9,0.4,5.5,1.1s2.9,1.7,4,3s1.9,2.8,2.5,4.6c0.6,1.8,0.8,3.7,0.8,5.7v24h-11.3v-24c0-1.8-0.4-3.3-1.3-4.3
				s-2.1-1.6-3.8-1.6c-1.2,0-2.4,0.3-3.5,0.8s-2.1,1.2-3.2,2.1v27h-11.3v-37.8h7c1.4,0,2.3,0.6,2.8,1.9L297.2,420.9z"/>
			<path class="st0" d="M356.1,425.8c-0.3,0.4-0.7,0.7-1,1c-0.3,0.2-0.8,0.4-1.4,0.4s-1.1-0.1-1.5-0.4c-0.5-0.3-1-0.6-1.5-0.9
				c-0.6-0.3-1.2-0.6-2-0.9s-1.7-0.4-2.8-0.4c-1.4,0-2.6,0.3-3.6,0.8s-1.8,1.2-2.5,2.2c-0.7,0.9-1.1,2.1-1.5,3.5
				c-0.3,1.4-0.5,2.9-0.5,4.7c0,3.6,0.7,6.4,2.1,8.4c1.4,1.9,3.3,2.9,5.8,2.9c1.3,0,2.4-0.2,3.1-0.5s1.4-0.7,2-1.1s1-0.8,1.5-1.1
				c0.4-0.3,1-0.5,1.7-0.5c0.9,0,1.6,0.3,2,1l3.3,4.1c-1.2,1.3-2.4,2.4-3.7,3.3c-1.3,0.8-2.6,1.5-4,2c-1.3,0.5-2.7,0.8-4.1,1
				s-2.7,0.3-4,0.3c-2.3,0-4.5-0.4-6.6-1.3s-4-2.1-5.5-3.8c-1.6-1.7-2.9-3.7-3.8-6.1s-1.4-5.2-1.4-8.3c0-2.7,0.4-5.3,1.2-7.6
				c0.8-2.4,2-4.4,3.6-6.2c1.6-1.7,3.6-3.1,5.9-4.1s5.1-1.5,8.2-1.5c3,0,5.6,0.5,7.8,1.4c2.2,0.9,4.3,2.3,6.1,4.2L356.1,425.8z"/>
			<path class="st0" d="M375.2,420.2c1.4-1.2,2.8-2.1,4.4-2.8s3.5-1.1,5.7-1.1c2.1,0,3.9,0.4,5.5,1.1s2.9,1.7,4,3s1.9,2.8,2.5,4.6
				c0.6,1.8,0.8,3.7,0.8,5.7v24h-11.3v-24c0-1.8-0.4-3.3-1.3-4.3s-2.1-1.6-3.8-1.6c-1.2,0-2.4,0.3-3.5,0.8s-2.1,1.2-3.2,2.1v27
				h-11.3v-54.6H375v20.1H375.2z"/>
		</g>
		<g class="st4">
			<path class="st2" d="M417.5,400.1v54.6h-11.3v-54.6H417.5z"/>
			<path class="st2" d="M424.3,422.1c2.3-2,4.8-3.5,7.6-4.5s5.8-1.5,9-1.5c2.3,0,4.3,0.4,6.2,1.1s3.4,1.8,4.7,3.1s2.3,2.9,2.9,4.7
				c0.7,1.8,1,3.8,1,6v23.6h-5.2c-1.1,0-1.9-0.1-2.4-0.4s-1-0.9-1.4-1.8l-0.8-2.1c-0.9,0.8-1.9,1.5-2.7,2.1
				c-0.9,0.6-1.8,1.1-2.7,1.6s-1.9,0.7-3,0.9c-1.1,0.2-2.2,0.3-3.5,0.3c-1.7,0-3.3-0.2-4.7-0.7c-1.4-0.5-2.6-1.1-3.6-2
				s-1.7-2-2.3-3.3c-0.5-1.3-0.8-2.8-0.8-4.5c0-1.4,0.3-2.7,1-4.1s1.9-2.7,3.5-3.8s3.9-2.1,6.8-2.9s6.4-1.2,10.8-1.3V431
				c0-2.2-0.5-3.8-1.4-4.8s-2.2-1.5-3.9-1.5c-1.3,0-2.4,0.1-3.3,0.4s-1.6,0.6-2.3,1c-0.7,0.4-1.3,0.7-2,1c-0.6,0.3-1.4,0.4-2.3,0.4
				c-0.8,0-1.4-0.2-2-0.6c-0.5-0.4-1-0.9-1.3-1.4L424.3,422.1z M444.7,439.3c-2.3,0.1-4.1,0.3-5.6,0.6c-1.5,0.3-2.6,0.7-3.5,1.1
				s-1.4,0.9-1.8,1.5s-0.5,1.2-0.5,1.8c0,1.3,0.4,2.2,1.1,2.7s1.7,0.8,3.1,0.8c1.5,0,2.7-0.3,3.8-0.8c1.1-0.5,2.2-1.3,3.3-2.5v-5.2
				H444.7z"/>
			<path class="st2" d="M474.3,420.9c1.5-1.4,3.1-2.5,4.8-3.3c1.7-0.8,3.7-1.3,5.8-1.3c2.1,0,4.1,0.4,5.8,1.3
				c1.8,0.9,3.2,2.1,4.5,3.7c1.2,1.6,2.2,3.6,2.9,5.9c0.7,2.3,1,4.8,1,7.7c0,3.1-0.4,5.9-1.2,8.4c-0.8,2.5-1.9,4.7-3.3,6.4
				c-1.4,1.8-3.1,3.2-5.1,4.2s-4.1,1.5-6.5,1.5c-1.1,0-2.2-0.1-3.1-0.3c-0.9-0.2-1.7-0.5-2.5-0.9s-1.4-0.9-2.1-1.4
				c-0.6-0.6-1.2-1.2-1.8-1.8l-0.4,1.9c-0.2,0.8-0.5,1.3-0.9,1.6c-0.4,0.3-1,0.4-1.8,0.4h-7.5v-54.6h11.3v20.6H474.3z M474.3,444.4
				c0.9,0.9,1.8,1.6,2.8,2s2,0.6,3,0.6c1.1,0,2.1-0.2,3-0.6s1.7-1.1,2.3-2c0.6-0.9,1.1-2.1,1.5-3.6s0.5-3.3,0.5-5.5
				c0-1.9-0.1-3.5-0.4-4.8s-0.7-2.4-1.2-3.2c-0.5-0.8-1.2-1.4-2-1.8s-1.7-0.6-2.8-0.6c-1.4,0-2.6,0.3-3.6,0.9s-2,1.5-3,2.7
				L474.3,444.4L474.3,444.4z"/>
		</g>
	</g>
</g>
</svg>
