<?xml version="1.0" encoding="utf-8"?>
<!-- Generator: Adobe Illustrator 25.0.0, SVG Export Plug-In . SVG Version: 6.00 Build 0)  -->
<svg version="1.1" id="Layer_1" xmlns="http://www.w3.org/2000/svg" xmlns:xlink="http://www.w3.org/1999/xlink" x="0px" y="0px"
	 viewBox="0 0 535.3 479.1" style="enable-background:new 0 0 535.3 479.1;" xml:space="preserve">
<style type="text/css">
	.st0{fill:#FFFFFF;}
	.st1{enable-background:new    ;}
</style>
<g>
	<g>
		<g>
			<g>
				<path class="st0" d="M270.1,126.6c0,2-10.6-67.2,10.2-80.5l14,11.4C294.3,57.5,270.1,70,270.1,126.6z"/>
				<path class="st0" d="M275.7,113c0,0,4.5-43.4,49.6-40.1C325.3,73,321.6,111.9,275.7,113z"/>
				<path class="st0" d="M263.5,101.8c0,0-61.2-7.8-54.9-71.5C208.5,30.3,263.4,36.9,263.5,101.8z"/>
			</g>
			<path class="st0" d="M343.8,125.1c-5-2.1-19.4-11.7-45-3.8c-14.8,4.6-24.2,7.4-31.4,7.4c-8.7,0-9.1-1.7-25.4-7.3
				c-22.5-7.7-43.5,1.7-48.1,3.7c-14.4,6.1-44,31.1-36.4,77.4c6.6,40.2,50.4,99.9,79.3,107.9c0.8-23.5,1.7-68.1,1.7-68.1
				s0.4-4.2-1.8-7.6c-8.6-2.3-15.1-12.1-15.1-23.9c0-13.5,8.5-24.4,19-24.4s19,10.9,19,24.4c0,11.9-6.6,21.9-15.4,24
				c-1.2,2.1-1.8,5.5-1.6,9.9c0.3,3.3,1,44.3,1.9,66.6c1.5-0.1,2.9-0.5,4.2-1c15.4-6.1,30.1-6.7,45.3-1.7c0.8-23.1,1.4-59,1.4-59
				s0.7-7.6-4.2-11.6c-0.3-0.2-0.6-0.3-1-0.4c-3.8-1-10.3-4.5-10.2-14.3c0-0.1,0-0.2,0-0.3c0-0.4,0-0.8,0-1.2c0.1-8.2,2-35.1,2-35.1
				h3.5l-0.6,29.3v0.1c0,0.1,0,0.1,0,0.1v0.1c0.1,1.5,1.3,2.6,2.8,2.6s2.7-1.2,2.8-2.6c0.9-27.8,1-29.6,1-29.6h4v28.2v0.1v0.1
				c0,1.4,1.1,2.5,2.5,2.5c1,0,1.8-0.5,2.2-1.3c0-0.1,0.1-0.1,0.1-0.2c0.1,0,0.1-0.1,0.1-0.1c0-0.1,0.1-0.2,0.1-0.3s0-0.1,0-0.2
				c0-0.2,0-0.3,0-0.4c0-0.1,0-0.1,0-0.1v-0.1l0.5-28.3h3.4l0.7,26.3c0.1,1.4,1.2,2.5,2.6,2.5c1.3,0,2.4-1.1,2.5-2.4v-0.1
				c0-0.1,0-0.1,0-0.1c0-0.1,0-0.1,0-0.1c-0.3-16.9,0-26.2,0-26.2h3.1c0,0,1.6,16.8,2.3,28.7c0,0.1,0,0.1,0,0.1
				c0,0.8,0.1,1.6,0.1,2.4c0.1,1.5,0.2,2.9,0.2,3.9c0,0.4,0,0.8,0,1.2c0,0,0,0.1,0,0.2c0.2,9.8-6.4,13.3-10.2,14.3
				c-0.3,0.1-0.7,0.2-1,0.4c-4.9,4.1-4.2,11.6-4.2,11.6s0.5,10.1,1.1,23.9c0.1,3.5,0.2,27.5,0.4,37.9c27,4.3,71-64.1,78.3-108.6
				C387.8,156.3,358.2,131.2,343.8,125.1z"/>
		</g>
		<g>
			<g>
				<g>
					<path class="st0" d="M238.3,369.3c-13.9,0-25.2-11.3-25.2-25.2c0-13.9,11.3-25.2,25.2-25.2s25.2,11.3,25.2,25.2
						C263.4,358,252.2,369.3,238.3,369.3z M238.3,331.2c-7.2,0-13,5.8-13,13s5.8,13,13,13s13-5.8,13-13S245.4,331.2,238.3,331.2z"/>
				</g>
				<g>
					<path class="st0" d="M217.9,342.9L217.9,342.9l-55.1-0.6c-1.9,0-3.5-1.6-3.4-3.5c0-1.9,1.5-3.5,3.5-3.4l55,0.6
						c1.9,0,3.5,1.6,3.4,3.5C221.4,341.3,219.8,342.9,217.9,342.9z"/>
				</g>
				<g>
					<path class="st0" d="M220.4,357.2h-32.8c-1.9,0-3.5-1.6-3.5-3.5s1.6-3.5,3.5-3.5h32.8c1.9,0,3.5,1.6,3.5,3.5
						S222.3,357.2,220.4,357.2z"/>
				</g>
			</g>
			<g>
				<g>
					<path class="st0" d="M353.2,369.3c-13.9,0-25.2-11.3-25.2-25.2c0-13.9,11.3-25.2,25.2-25.2c13.9,0,25.2,11.3,25.2,25.2
						C378.3,358,367,369.3,353.2,369.3z M353.2,331.2c-7.2,0-13,5.8-13,13s5.8,13,13,13s13-5.8,13-13S360.3,331.2,353.2,331.2z"/>
				</g>
				<g>
					<path class="st0" d="M332.8,342.9L332.8,342.9l-55.1-0.6c-1.9,0-3.5-1.6-3.4-3.5c0-1.9,1.5-3.5,3.5-3.4l55,0.6
						c1.9,0,3.5,1.6,3.4,3.5C336.3,341.3,334.7,342.9,332.8,342.9z"/>
				</g>
				<g>
					<path class="st0" d="M335.3,357.2h-32.8c-1.9,0-3.5-1.6-3.5-3.5s1.6-3.5,3.5-3.5h32.8c1.9,0,3.5,1.6,3.5,3.5
						S337.2,357.2,335.3,357.2z"/>
				</g>
			</g>
		</g>
	</g>
	<g>
		<g class="st1">
			<path class="st0" d="M76,401.9H59.1v46.3h-7v-46.3H35v-5.9H76V401.9z"/>
			<path class="st0" d="M88.1,416.2c1.6-1.7,3.3-3,5.3-4c1.9-1,4.1-1.5,6.6-1.5c2,0,3.8,0.3,5.3,1c1.5,0.7,2.8,1.6,3.9,2.8
				c1,1.2,1.8,2.7,2.4,4.4c0.5,1.7,0.8,3.6,0.8,5.7v23.5h-6.5v-23.5c0-2.8-0.6-5-1.9-6.5s-3.2-2.3-5.8-2.3c-1.9,0-3.7,0.5-5.4,1.4
				c-1.7,0.9-3.2,2.2-4.6,3.8v27.2h-6.5v-53.8h6.5V416.2z"/>
			<path class="st0" d="M152.3,443c-0.8,1-1.8,1.8-2.9,2.5s-2.3,1.3-3.6,1.8c-1.3,0.5-2.6,0.8-4,1c-1.4,0.2-2.7,0.3-4.1,0.3
				c-2.6,0-4.9-0.4-7.1-1.3c-2.2-0.9-4-2.1-5.6-3.8c-1.6-1.7-2.8-3.7-3.7-6.2s-1.3-5.3-1.3-8.5c0-2.6,0.4-5,1.2-7.2s1.9-4.2,3.4-5.8
				c1.5-1.6,3.3-2.9,5.4-3.9c2.1-0.9,4.5-1.4,7.2-1.4c2.2,0,4.3,0.4,6.1,1.1c1.9,0.7,3.5,1.8,4.9,3.2c1.4,1.4,2.5,3.1,3.2,5.2
				c0.8,2.1,1.2,4.4,1.2,7c0,1-0.1,1.7-0.3,2s-0.6,0.5-1.2,0.5h-24.7c0.1,2.3,0.4,4.4,1,6.1c0.6,1.7,1.4,3.2,2.4,4.3s2.2,2,3.6,2.6
				c1.4,0.6,3,0.9,4.7,0.9c1.6,0,3-0.2,4.2-0.6c1.2-0.4,2.2-0.8,3-1.2c0.9-0.4,1.6-0.8,2.1-1.2c0.6-0.4,1.1-0.6,1.5-0.6
				c0.5,0,0.9,0.2,1.2,0.6L152.3,443z M147,425.7c0-1.5-0.2-2.9-0.6-4.1c-0.4-1.3-1-2.3-1.9-3.2c-0.8-0.9-1.8-1.6-3-2.1
				c-1.2-0.5-2.5-0.7-4-0.7c-3.1,0-5.6,0.9-7.4,2.7c-1.8,1.8-2.9,4.3-3.4,7.5H147z"/>
		</g>
		<g class="st1">
			<path class="st0" d="M238.1,395v53.2h-10.9v-30.6c0-0.7,0-1.5,0.1-2.3c0-0.8,0.1-1.7,0.2-2.5l-14.1,27.3c-0.4,0.9-1,1.5-1.8,1.9
				c-0.7,0.4-1.6,0.7-2.5,0.7h-1.7c-0.9,0-1.8-0.2-2.5-0.7c-0.7-0.4-1.3-1.1-1.8-1.9l-14.1-27.4c0.1,0.9,0.1,1.7,0.2,2.6
				c0,0.8,0.1,1.6,0.1,2.3v30.6h-10.9V395h9.4c0.5,0,1,0,1.4,0c0.4,0,0.8,0.1,1.1,0.2c0.3,0.1,0.6,0.3,0.9,0.6
				c0.3,0.3,0.5,0.6,0.7,1.1l13.7,27c0.5,0.9,1,1.9,1.4,2.9s0.9,2,1.3,3.1c0.4-1.1,0.8-2.1,1.3-3.1c0.4-1,0.9-2,1.4-2.9l13.6-26.9
				c0.2-0.5,0.5-0.8,0.7-1.1c0.3-0.3,0.5-0.4,0.9-0.6c0.3-0.1,0.7-0.2,1.1-0.2c0.4,0,0.9,0,1.4,0H238.1z"/>
			<path class="st0" d="M280.3,410.4v37.8h-7c-1.4,0-2.3-0.6-2.8-1.9l-0.7-2.2c-0.7,0.7-1.5,1.3-2.3,1.9c-0.8,0.6-1.6,1.1-2.5,1.5
				c-0.9,0.4-1.8,0.7-2.9,0.9c-1,0.2-2.2,0.3-3.4,0.3c-2.1,0-3.9-0.4-5.5-1.1c-1.6-0.7-2.9-1.7-4-3c-1.1-1.3-1.9-2.8-2.5-4.6
				s-0.8-3.7-0.8-5.8v-24h11.3v24c0,1.9,0.4,3.3,1.3,4.3c0.9,1,2.1,1.5,3.8,1.5c1.2,0,2.4-0.3,3.5-0.8c1.1-0.5,2.1-1.2,3.2-2.1v-27
				H280.3z"/>
			<path class="st0" d="M298.4,414.5c0.7-0.7,1.5-1.3,2.3-1.9c0.8-0.6,1.6-1.1,2.5-1.5c0.9-0.4,1.8-0.7,2.9-0.9
				c1-0.2,2.2-0.3,3.4-0.3c2.1,0,3.9,0.4,5.5,1.1c1.6,0.7,2.9,1.7,4,3s1.9,2.8,2.5,4.6c0.6,1.8,0.8,3.7,0.8,5.7v24h-11.3v-24
				c0-1.8-0.4-3.3-1.3-4.3s-2.1-1.6-3.8-1.6c-1.2,0-2.4,0.3-3.5,0.8c-1.1,0.5-2.1,1.2-3.2,2.1v27h-11.3v-37.8h7
				c1.4,0,2.3,0.6,2.8,1.9L298.4,414.5z"/>
			<path class="st0" d="M357.3,419.3c-0.3,0.4-0.7,0.7-1,1c-0.3,0.2-0.8,0.4-1.4,0.4c-0.6,0-1.1-0.1-1.5-0.4c-0.5-0.3-1-0.6-1.5-0.9
				c-0.6-0.3-1.2-0.6-2-0.9c-0.8-0.3-1.7-0.4-2.8-0.4c-1.4,0-2.6,0.3-3.6,0.8c-1,0.5-1.8,1.2-2.5,2.2c-0.7,0.9-1.1,2.1-1.5,3.5
				c-0.3,1.4-0.5,2.9-0.5,4.7c0,3.6,0.7,6.4,2.1,8.4c1.4,1.9,3.3,2.9,5.8,2.9c1.3,0,2.4-0.2,3.1-0.5s1.4-0.7,2-1.1s1-0.8,1.5-1.1
				c0.4-0.3,1-0.5,1.7-0.5c0.9,0,1.6,0.3,2,1l3.3,4.1c-1.2,1.3-2.4,2.4-3.7,3.3c-1.3,0.8-2.6,1.5-4,2c-1.3,0.5-2.7,0.8-4.1,1
				c-1.4,0.2-2.7,0.3-4,0.3c-2.3,0-4.5-0.4-6.6-1.3c-2.1-0.9-4-2.1-5.5-3.8c-1.6-1.7-2.9-3.7-3.8-6.1s-1.4-5.2-1.4-8.3
				c0-2.7,0.4-5.3,1.2-7.6c0.8-2.4,2-4.4,3.6-6.2c1.6-1.7,3.6-3.1,5.9-4.1c2.3-1,5.1-1.5,8.2-1.5c3,0,5.6,0.5,7.8,1.4
				c2.2,0.9,4.3,2.3,6.1,4.2L357.3,419.3z"/>
			<path class="st0" d="M376.3,413.7c1.4-1.2,2.8-2.1,4.4-2.8s3.5-1.1,5.7-1.1c2.1,0,3.9,0.4,5.5,1.1c1.6,0.7,2.9,1.7,4,3
				s1.9,2.8,2.5,4.6c0.6,1.8,0.8,3.7,0.8,5.7v24H388v-24c0-1.8-0.4-3.3-1.3-4.3s-2.1-1.6-3.8-1.6c-1.2,0-2.4,0.3-3.5,0.8
				c-1.1,0.5-2.1,1.2-3.2,2.1v27H365v-54.6h11.3V413.7z"/>
		</g>
		<g class="st1">
			<path class="st0" d="M418.7,393.6v54.6h-11.3v-54.6H418.7z"/>
			<path class="st0" d="M425.5,415.6c2.3-2,4.8-3.5,7.6-4.5s5.8-1.5,9-1.5c2.3,0,4.3,0.4,6.2,1.1s3.4,1.8,4.7,3.1s2.3,2.9,2.9,4.7
				c0.7,1.8,1,3.8,1,6v23.6h-5.2c-1.1,0-1.9-0.1-2.4-0.4c-0.5-0.3-1-0.9-1.4-1.8l-0.8-2.1c-0.9,0.8-1.9,1.5-2.7,2.1
				c-0.9,0.6-1.8,1.1-2.7,1.6s-1.9,0.7-3,0.9c-1.1,0.2-2.2,0.3-3.5,0.3c-1.7,0-3.3-0.2-4.7-0.7c-1.4-0.5-2.6-1.1-3.6-2
				s-1.7-2-2.3-3.3c-0.5-1.3-0.8-2.8-0.8-4.5c0-1.4,0.3-2.7,1-4.1c0.7-1.4,1.9-2.7,3.5-3.8s3.9-2.1,6.8-2.9s6.4-1.2,10.8-1.3v-1.6
				c0-2.2-0.5-3.8-1.4-4.8c-0.9-1-2.2-1.5-3.9-1.5c-1.3,0-2.4,0.1-3.3,0.4c-0.9,0.3-1.6,0.6-2.3,1c-0.7,0.4-1.3,0.7-2,1
				c-0.6,0.3-1.4,0.4-2.3,0.4c-0.8,0-1.4-0.2-2-0.6c-0.5-0.4-1-0.9-1.3-1.4L425.5,415.6z M445.9,432.8c-2.3,0.1-4.1,0.3-5.6,0.6
				c-1.5,0.3-2.6,0.7-3.5,1.1c-0.9,0.4-1.4,0.9-1.8,1.5s-0.5,1.2-0.5,1.8c0,1.3,0.4,2.2,1.1,2.7c0.7,0.5,1.7,0.8,3.1,0.8
				c1.5,0,2.7-0.3,3.8-0.8c1.1-0.5,2.2-1.3,3.3-2.5V432.8z"/>
			<path class="st0" d="M475.4,414.4c1.5-1.4,3.1-2.5,4.8-3.3c1.7-0.8,3.7-1.3,5.8-1.3c2.1,0,4.1,0.4,5.8,1.3
				c1.8,0.9,3.2,2.1,4.5,3.7c1.2,1.6,2.2,3.6,2.9,5.9c0.7,2.3,1,4.8,1,7.7c0,3.1-0.4,5.9-1.2,8.4c-0.8,2.5-1.9,4.7-3.3,6.4
				c-1.4,1.8-3.1,3.2-5.1,4.2s-4.1,1.5-6.5,1.5c-1.1,0-2.2-0.1-3.1-0.3c-0.9-0.2-1.7-0.5-2.5-0.9s-1.4-0.9-2.1-1.4
				c-0.6-0.6-1.2-1.2-1.8-1.8l-0.4,1.9c-0.2,0.8-0.5,1.3-0.9,1.6c-0.4,0.3-1,0.4-1.8,0.4h-7.5v-54.6h11.3V414.4z M475.4,437.9
				c0.9,0.9,1.8,1.6,2.8,2c1,0.4,2,0.6,3,0.6c1.1,0,2.1-0.2,3-0.6c0.9-0.4,1.7-1.1,2.3-2c0.6-0.9,1.1-2.1,1.5-3.6
				c0.4-1.5,0.5-3.3,0.5-5.5c0-1.9-0.1-3.5-0.4-4.8c-0.3-1.3-0.7-2.4-1.2-3.2c-0.5-0.8-1.2-1.4-2-1.8c-0.8-0.4-1.7-0.6-2.8-0.6
				c-1.4,0-2.6,0.3-3.6,0.9c-1,0.6-2,1.5-3,2.7V437.9z"/>
		</g>
	</g>
</g>
</svg>
